<?xml version="1.0" standalone="no"?>
<!DOCTYPE svg PUBLIC "-//W3C//DTD SVG 20010904//EN"
 "http://www.w3.org/TR/2001/REC-SVG-20010904/DTD/svg10.dtd">
<svg version="1.0" xmlns="http://www.w3.org/2000/svg"
 width="352.000000pt" height="129.000000pt" viewBox="0 0 352.000000 129.000000"
 preserveAspectRatio="xMidYMid meet">

<g transform="translate(0.000000,129.000000) scale(0.100000,-0.100000)"
fill="#000000" stroke="none">
<path d="M0 645 l0 -645 1760 0 1760 0 0 645 0 645 -1760 0 -1760 0 0 -645z
m880 95 l0 -340 -55 0 -55 0 0 340 0 340 55 0 55 0 0 -340z m940 -42 c0 -350
-2 -386 -19 -423 -61 -135 -234 -151 -326 -30 -60 77 -38 196 46 252 37 24 52
28 116 28 l73 0 0 278 0 277 55 0 55 0 0 -382z m-1162 181 l-3 -181 -28 -24
c-26 -22 -36 -24 -142 -24 -123 0 -157 9 -174 47 -7 14 -11 91 -11 193 l0 170
181 0 181 0 -4 -181z m922 131 l0 -50 -115 0 c-108 0 -115 -1 -115 -20 0 -19
7 -20 115 -20 l115 0 0 -50 0 -50 -115 0 c-108 0 -115 -1 -115 -20 0 -19 7
-20 120 -20 l120 0 0 -56 0 -56 -151 4 -151 3 -24 28 c-23 27 -24 33 -24 193
l0 164 170 0 170 0 0 -50z m875 -20 c128 -15 125 -13 125 -69 l0 -48 -113 5
c-195 8 -217 -11 -225 -188 -5 -121 6 -176 44 -211 22 -21 35 -24 97 -24 l72
0 0 60 c0 58 -1 60 -27 63 -27 3 -28 6 -28 58 l0 54 90 0 90 0 0 -164 c0 -91
-4 -167 -9 -170 -22 -14 -250 -19 -297 -7 -103 26 -152 97 -163 238 -19 245
40 380 175 402 69 12 69 12 169 1z m705 -17 c87 -36 129 -117 137 -264 9 -159
-22 -272 -89 -322 -51 -38 -101 -50 -192 -45 -180 10 -239 88 -240 318 -2 213
49 301 187 330 52 11 151 2 197 -17z"/>
<path d="M1607 419 c-59 -16 -76 -81 -32 -124 49 -50 129 -20 129 48 0 59 -41
91 -97 76z"/>
<path d="M410 855 l0 -95 65 0 65 0 0 95 0 95 -65 0 -65 0 0 -95z"/>
<path d="M2969 865 c-42 -23 -60 -82 -60 -200 0 -126 17 -176 66 -199 41 -20
76 -20 121 -1 51 21 67 66 67 190 0 170 -30 225 -122 225 -25 -1 -58 -7 -72
-15z"/>
</g>
</svg>
