<?xml version="1.0" standalone="no"?>
<!DOCTYPE svg PUBLIC "-//W3C//DTD SVG 20010904//EN"
 "http://www.w3.org/TR/2001/REC-SVG-20010904/DTD/svg10.dtd">
<svg version="1.0" xmlns="http://www.w3.org/2000/svg"
 width="347.000000pt" height="153.000000pt" viewBox="0 0 347.000000 153.000000"
 preserveAspectRatio="xMidYMid meet">

<g transform="translate(0.000000,153.000000) scale(0.100000,-0.100000)"
fill="#000000" stroke="none">
<path d="M730 870 l0 -340 55 0 55 0 0 340 0 340 -55 0 -55 0 0 -340z"/>
<path d="M1670 933 l0 -278 -72 0 c-64 0 -79 -4 -115 -29 -102 -69 -110 -204
-17 -286 93 -81 244 -48 295 64 17 38 19 72 19 424 l0 382 -55 0 -55 0 0 -277z
m-52 -384 c80 -28 57 -149 -29 -149 -84 0 -109 107 -34 148 25 14 26 14 63 1z"/>
<path d="M260 1014 l0 -176 29 -29 c29 -29 31 -29 141 -29 115 0 161 12 174
45 3 9 6 95 6 191 l0 174 -175 0 -175 0 0 -176z m248 -26 l3 -98 -71 0 -70 0
0 100 0 101 68 -3 67 -3 3 -97z"/>
<path d="M1200 1025 c0 -163 0 -166 25 -190 23 -24 28 -25 175 -25 l150 0 0
50 0 50 -120 0 c-113 0 -120 1 -120 20 0 19 7 20 110 20 l110 0 0 50 0 50
-110 0 c-103 0 -110 1 -110 20 0 19 7 20 115 20 l115 0 0 50 0 50 -170 0 -170
0 0 -165z"/>
<path d="M2262 1119 c-66 -11 -102 -30 -135 -68 -43 -52 -52 -94 -52 -256 0
-147 1 -151 30 -210 24 -47 40 -65 75 -85 42 -23 54 -25 167 -24 66 1 137 4
157 8 l36 7 0 164 0 165 -90 0 -90 0 0 -55 c0 -55 0 -55 30 -55 l31 0 -3 -62
-3 -63 -50 -3 c-27 -2 -67 2 -88 8 -32 9 -42 19 -59 57 -17 39 -19 61 -16 162
4 130 20 174 66 192 16 6 78 9 150 7 l122 -4 0 47 c0 54 -2 55 -92 64 -35 3
-79 7 -98 9 -19 2 -59 -1 -88 -5z"/>
<path d="M2935 1118 c-117 -15 -178 -89 -198 -238 -13 -101 1 -228 32 -293 27
-56 93 -103 157 -113 118 -17 236 19 282 86 36 54 46 107 46 240 -1 105 -4
134 -23 182 -44 113 -140 157 -296 136z m138 -128 c38 -30 52 -82 52 -200 -1
-155 -33 -209 -128 -210 -92 0 -131 61 -131 209 -1 103 18 175 52 201 35 28
120 27 155 0z"/>
</g>
</svg>
