<?xml version="1.0" encoding="UTF-8" standalone="no" ?>
<!DOCTYPE svg PUBLIC "-//W3C//DTD SVG 1.1//EN" "http://www.w3.org/Graphics/SVG/1.1/DTD/svg11.dtd">
<svg xmlns="http://www.w3.org/2000/svg" xmlns:xlink="http://www.w3.org/1999/xlink" version="1.1" width="1080" height="1080" viewBox="0 0 1080 1080" xml:space="preserve">
<desc>Created with Fabric.js 5.2.4</desc>
<defs>
</defs>
<g transform="matrix(1 0 0 1 540 540)" id="693a5be6-0c75-4db6-b6a8-64c9988527d5"  >
</g>
<g transform="matrix(1 0 0 1 540 540)" id="63b645be-ccae-41a7-b53b-f909ac9e7253"  >
<rect style="stroke: none; stroke-width: 1; stroke-dasharray: none; stroke-linecap: butt; stroke-dashoffset: 0; stroke-linejoin: miter; stroke-miterlimit: 4; fill: rgb(255,255,255); fill-rule: nonzero; opacity: 1; visibility: hidden;" vector-effect="non-scaling-stroke"  x="-540" y="-540" rx="0" ry="0" width="1080" height="1080" />
</g>
<g transform="matrix(1.17 0 0 1.17 540 540)"  >
<g style="" vector-effect="non-scaling-stroke"   >
		<g transform="matrix(7.71 0 0 7.71 -0.23 -0.08)"  >
<path style="stroke: none; stroke-width: 1; stroke-dasharray: none; stroke-linecap: butt; stroke-dashoffset: 0; stroke-linejoin: miter; stroke-miterlimit: 4; fill: rgb(166,166,166); fill-rule: nonzero; opacity: 1;" vector-effect="non-scaling-stroke"  transform=" translate(-59.83, -20)" d="M 110.1348 0.0001 L 9.5347 0.0001 C 9.168000000000001 0.0001 8.805700000000002 0.0001 8.439900000000002 0.0021 C 8.1338 0.0040999999999999995 7.830100000000002 0.009899999999999999 7.521000000000002 0.014799999999999999 C 6.849513942656529 0.02269865257830133 6.179606746663691 0.08176976467567898 5.517100000000004 0.1915000000000003 C 4.855516886220535 0.3036193404103544 4.214658243375142 0.5150025636541122 3.616199999999999 0.8185000000000007 C 3.018494443759904 1.1245784722612127 2.4723570549121785 1.522287690248865 1.9976000000000012 1.997200000000001 C 1.5203469283646296 2.4707408140522094 1.1225147356278176 3.0180892985424252 0.8194000000000006 3.6182000000000025 C 0.5154426925852702 4.217174187278184 0.3046827703429813 4.859030884871737 0.19440000000000013 5.521600000000003 C 0.08306094116680485 6.183304906345891 0.02314838064382385 6.85264054343855 0.015200000000000324 7.523599999999995 C 0.005900000000001907 7.8302 0.004900000000001906 8.137799999999999 1.906461100098511e-15 8.4445 L 1.906461100098511e-15 31.5587 C 0.004900000000001906 31.869200000000003 0.005900000000001906 32.17 0.015200000000001906 32.4807 C 0.02315589828638358 33.15159277080597 0.08306844254694698 33.82086135953806 0.19440000000000526 34.4825 C 0.3043865646719747 35.14542887909458 0.5151587396467996 35.787626403581875 0.8194000000000001 36.3868 C 1.1223697806835804 36.985001288150926 1.5202581940943916 37.530164474171194 1.9975999999999996 38.0011 C 2.470559130118068 38.47811036283171 3.017049489346263 38.87607662158759 3.6161999999999983 39.1798 C 4.214654112480536 39.48410871833015 4.855443506952555 39.69675007244291 5.517100000000003 39.8106 C 6.179719076997078 39.91945487714238 6.849557402200672 39.9785533430818 7.521 39.9874 C 7.830000000000002 39.9942 8.1338 39.9981 8.440000000000001 39.9981 C 8.805700000000002 40.0001 9.168000000000001 40.0001 9.5347 40.0001 L 110.1347 40.0001 C 110.49419999999999 40.0001 110.8594 40.0001 111.2187 39.9981 C 111.5235 39.9981 111.836 39.9942 112.1407 39.9874 C 112.81087313759005 39.97902370263686 113.47945041578109 39.91992147124477 114.1407 39.8106 C 114.80448414303935 39.69594665456294 115.44756390054003 39.483361647209705 116.04889999999999 39.1798 C 116.64752754479213 38.87590489129968 117.19353054335679 38.47794932958304 117.66609999999999 38.0011 C 118.14221783004147 37.52832202844352 118.54096270401318 36.98355742955004 118.84769999999999 36.3868 C 119.14962470534898 35.78718525039767 119.35835675395786 35.145039143506104 119.46669999999999 34.4825 C 119.57824846368537 33.82074014559789 119.64032038614057 33.15158677153718 119.65239999999999 32.48060000000001 C 119.65639999999999 32.17 119.65639999999999 31.869200000000003 119.65639999999999 31.5587 C 119.66439999999999 31.195400000000003 119.66439999999999 30.834100000000003 119.66439999999999 30.4649 L 119.66439999999999 9.5363 C 119.66439999999999 9.17 119.66439999999999 8.8068 119.65639999999999 8.444500000000001 C 119.65639999999999 8.137800000000002 119.65639999999999 7.830200000000001 119.65239999999999 7.523500000000001 C 119.64035581255497 6.852482444842035 119.57831731838935 6.18329567049099 119.46679999999999 5.5214999999999925 C 119.35811087006631 4.859382753113321 119.1493575159867 4.217645742154949 118.84769999999999 3.6182999999999965 C 118.23044054560592 2.4153393366981284 117.25161801934544 1.4361321081442155 116.04889999999999 0.8184000000000009 C 115.44756220580499 0.5156468268554469 114.80441359700087 0.3043198287838703 114.1407 0.19140000000000157 C 113.4795632728662 0.0812031247971296 112.81091634237205 0.022128168487969585 112.14069999999998 0.01469999999999927 C 111.836 0.009800000000001351 111.5235 0.0039000000000013503 111.2187 0.0020000000000013514 C 110.8594 1.3513495877859327e-15 110.49419999999999 1.3513495877859327e-15 110.1347 1.3513495877859327e-15 z" stroke-linecap="round" />
</g>
		<g transform="matrix(7.71 0 0 7.71 -0.23 -0.07)"  >
<path style="stroke: none; stroke-width: 1; stroke-dasharray: none; stroke-linecap: butt; stroke-dashoffset: 0; stroke-linejoin: miter; stroke-miterlimit: 4; fill: rgb(0,0,0); fill-rule: nonzero; opacity: 1;" vector-effect="non-scaling-stroke"  transform=" translate(-59.83, -20)" d="M 8.4448 39.1251 C 8.1401 39.1251 7.8428 39.1212 7.540500000000001 39.1144 C 6.914297608130797 39.10627198683621 6.289556456407629 39.05178971850875 5.671399999999998 38.95140000000001 C 5.0949986348314 38.852092850489285 4.536626084651527 38.66739546562868 4.014700000000001 38.403400000000005 C 3.4975414317126488 38.14162311206157 3.0258514250304724 37.79837324749958 2.6176999999999997 37.38680000000001 C 2.2036080274920558 36.98008232404231 1.858853713964778 36.50835059874264 1.5970999999999993 35.990300000000005 C 1.3324898441302249 35.46888889573182 1.1493634952524518 34.909999419930266 1.0541 34.3331 C 0.9512578281731348 33.71321232075137 0.8956312741184096 33.086410705050604 0.8876999999999988 32.4581 C 0.8813000000000001 32.2472 0.873 31.5451 0.873 31.5451 L 0.873 8.4444 C 0.873 8.4444 0.8818 7.753 0.8877 7.5498 C 0.8953194941720803 6.922506204084607 0.9506457736826841 6.2967007947561875 1.0531999999999981 5.677800000000001 C 1.1486513548514832 5.09931789000868 1.3319330225376163 4.5388165839164625 1.5967 4.0157000000000025 C 1.8574482378353647 3.497999057001758 2.200244559678449 3.025898517215893 2.6117999999999992 2.6177000000000015 C 3.0229185277390878 2.205625297352616 3.4961380645929103 1.8605975046878749 4.014199999999997 1.5952000000000033 C 4.534940130361706 1.3320980787276417 5.09226413419826 1.1487505158614337 5.667499999999996 1.0513000000000012 C 6.287698079089728 0.9499202780120601 6.914618193250773 0.8951337108507749 7.542999999999995 0.8874000000000029 L 8.4453 0.875 L 111.214 0.875 L 112.127 0.8877 C 112.7497069312022 0.8950977456075039 113.3709690309954 0.9494519115619702 113.9855 1.0502999999999996 C 114.56657070619171 1.1490004476341336 115.1297099773447 1.3336578219023236 115.6564 1.5982000000000012 C 116.69421556435906 2.133036005856992 117.5386686693266 2.97920249393605 118.07140000000001 4.018100000000001 C 118.33193450922664 4.537632775576206 118.51237599048926 5.093589432157002 118.60660000000001 5.667099999999998 C 118.71038383796345 6.2910651054094044 118.7684715903423 6.9217751026137355 118.78040000000001 7.5542 C 118.78340000000001 7.837400000000001 118.78340000000001 8.1416 118.78340000000001 8.4444 C 118.79140000000001 8.8194 118.79140000000001 9.1763 118.79140000000001 9.536200000000001 L 118.79140000000001 30.4648 C 118.79140000000001 30.8281 118.79140000000001 31.1826 118.78340000000001 31.54 C 118.78340000000001 31.865199999999998 118.78340000000001 32.1631 118.77940000000001 32.469699999999996 C 118.76770181434898 33.090878111809886 118.71054910410899 33.71036669911879 118.6084 34.32319999999999 C 118.51508974719789 34.90426115314977 118.3329603640637 35.46751313432402 118.0684 35.993199999999995 C 117.80485340690828 36.505614128405206 117.4621434914512 36.97325876636569 117.0529 37.378899999999994 C 116.64438104836252 37.79268463565793 116.17185866831134 38.13794269882953 115.6535 38.401399999999995 C 115.12826592878942 38.667393395693146 114.56595580452831 38.85273998221518 113.98549999999999 38.95119999999999 C 113.36737959787376 39.05216089721105 112.74256501668508 39.10668008092166 112.11629999999998 39.11429999999999 C 111.81721737467522 39.121295330882184 111.51806439033619 39.12486223185436 111.21889999999998 39.12499999999999 L 110.13489999999997 39.126999999999995 z" stroke-linecap="round" />
</g>
		<g transform="matrix(7.71 0 0 7.71 -0.98 7.38)"  >
<path style="stroke: none; stroke-width: 1; stroke-dasharray: none; stroke-linecap: butt; stroke-dashoffset: 0; stroke-linejoin: miter; stroke-miterlimit: 4; fill: rgb(255,255,255); fill-rule: nonzero; opacity: 1;" vector-effect="non-scaling-stroke"  transform=" translate(-59.73, -20.96)" d="M 24.7689 20.3008 C 24.79076267348597 18.60436189342186 25.680122374724828 17.037367843116854 27.1254 16.148799999999998 C 26.20948512617896 14.84070662921527 24.730392581287134 14.041067937097033 23.1343 13.991099999999998 C 21.455 13.814799999999998 19.8271 14.995899999999997 18.9713 14.995899999999997 C 18.0991 14.995899999999997 16.781599999999997 14.008599999999998 15.3629 14.037799999999997 C 13.496207432275918 14.09806824763151 11.798110975137375 15.13362995471457 10.8899 16.765599999999996 C 8.955900000000002 20.114099999999997 10.3985 25.035099999999996 12.2512 27.741699999999994 C 13.1781 29.067099999999993 14.2613 30.547499999999996 15.6788 30.494999999999994 C 17.0658 30.437499999999993 17.5838 29.610499999999995 19.258200000000002 29.610499999999995 C 20.917 29.610499999999995 21.403000000000002 30.494999999999994 22.849200000000003 30.461599999999994 C 24.337600000000002 30.437499999999993 25.2753 29.130399999999995 26.169700000000002 27.792499999999993 C 26.835668154672472 26.848141474846177 27.34812888916836 25.804421228910623 27.6881 24.7 C 25.92035335721345 23.952325390772394 24.770931123823544 22.220159629903364 24.7689 20.3008 z M 22.0373 12.210999999999999 C 22.84881254565763 11.236792951460899 23.248613057043052 9.984622771970578 23.151799999999998 8.7204 C 21.911963283374575 8.85061686003597 20.76669924436818 9.443172103562286 19.9442 10.379999999999999 C 19.1320259227601 11.304310849261773 18.72058474847219 12.513560095787415 18.8005 13.741399999999995 C 20.056972338002506 13.754348599382466 21.249968275125916 13.19028502357498 22.0373 12.210999999999995 z M 42.3023 27.1398 L 37.5689 27.1398 L 36.4322 30.4962 L 34.4272 30.4962 L 38.9107 18.078200000000002 L 40.9937 18.078200000000002 L 45.47709999999999 30.4962 L 43.438 30.4962 z M 38.0591 25.5909 L 41.8111 25.5909 L 39.9615 20.143700000000003 L 39.9097 20.143700000000003 z M 55.1597 25.969900000000003 C 55.1597 28.783300000000004 53.653800000000004 30.590900000000005 51.3814 30.590900000000005 C 50.206760615211664 30.652372057120864 49.100303608980916 30.037134265191387 48.5327 29.006900000000005 L 48.4897 29.006900000000005 L 48.4897 33.4913 L 46.631299999999996 33.4913 L 46.631299999999996 21.4425 L 48.4302 21.4425 L 48.4302 22.9484 L 48.4644 22.9484 C 49.05720079240189 21.924644036114454 50.164814627981244 21.309670154739297 51.3472 21.3478 C 53.645 21.3478 55.1597 23.1642 55.1597 25.9698 z M 53.2495 25.969900000000003 C 53.2495 24.136900000000004 52.302299999999995 22.931800000000003 50.857 22.931800000000003 C 49.437 22.931800000000003 48.482 24.162200000000002 48.482 25.969800000000003 C 48.482 27.794100000000004 49.437 29.015800000000002 50.857 29.015800000000002 C 52.3023 29.015800000000002 53.2495 27.8195 53.2495 25.969800000000003 z M 65.1245 25.969900000000003 C 65.1245 28.783300000000004 63.6187 30.590900000000005 61.346199999999996 30.590900000000005 C 60.17159583469991 30.652332863888518 59.065187597448684 30.03710059266548 58.4976 29.006900000000005 L 58.4546 29.006900000000005 L 58.4546 33.4913 L 56.596199999999996 33.4913 L 56.596199999999996 21.4425 L 58.394999999999996 21.4425 L 58.394999999999996 22.9484 L 58.429199999999994 22.9484 C 59.02200079240189 21.924644036114454 60.12961462798124 21.309670154739297 61.312 21.3478 C 63.609899999999996 21.3478 65.1245 23.1642 65.1245 25.9698 z M 63.2144 25.969900000000003 C 63.2144 24.136900000000004 62.2671 22.931800000000003 60.821799999999996 22.931800000000003 C 59.401799999999994 22.931800000000003 58.446799999999996 24.162200000000002 58.446799999999996 25.969800000000003 C 58.446799999999996 27.794100000000004 59.401799999999994 29.015800000000002 60.821799999999996 29.015800000000002 C 62.2671 29.015800000000002 63.2144 27.8195 63.2144 25.969800000000003 z M 71.7105 27.036300000000004 C 71.84819999999999 28.267700000000005 73.0445 29.076300000000003 74.6792 29.076300000000003 C 76.2456 29.076300000000003 77.37259999999999 28.267700000000005 77.37259999999999 27.157300000000003 C 77.37259999999999 26.193400000000004 76.6929 25.616300000000003 75.08359999999999 25.220800000000004 L 73.47409999999999 24.833100000000005 C 71.1939 24.282300000000006 70.13529999999999 23.215900000000005 70.13529999999999 21.485400000000006 C 70.13529999999999 19.342800000000004 72.00249999999998 17.871200000000005 74.65379999999999 17.871200000000005 C 77.27779999999998 17.871200000000005 79.07669999999999 19.342800000000004 79.13719999999999 21.485400000000006 L 77.26119999999999 21.485400000000006 C 77.14889999999998 20.246200000000005 76.12449999999998 19.498100000000004 74.6274 19.498100000000004 C 73.1304 19.498100000000004 72.106 20.255000000000006 72.106 21.356500000000004 C 72.106 22.234500000000004 72.7603 22.751100000000005 74.3608 23.146500000000003 L 75.729 23.4825 C 78.2768 24.085 79.3355 25.108500000000003 79.3355 26.9248 C 79.3355 29.2481 77.4849 30.703200000000002 74.5415 30.703200000000002 C 71.7875 30.703200000000002 69.9282 29.282200000000003 69.8081 27.0362 z M 83.3462 19.3 L 83.3462 21.442500000000003 L 85.0679 21.442500000000003 L 85.0679 22.9142 L 83.3462 22.9142 L 83.3462 27.9054 C 83.3462 28.6808 83.6909 29.0421 84.4478 29.0421 C 84.65218142288607 29.038534930775313 84.85623209206652 29.02418162016717 85.0591 28.999100000000002 L 85.0591 30.462100000000003 C 84.71883336728884 30.525630657032117 84.3729860478866 30.554378670987468 84.0269 30.547900000000002 C 82.1939 30.547900000000002 81.479 29.8595 81.479 28.1036 L 81.479 22.9142 L 80.1626 22.9142 L 80.1626 21.442500000000003 L 81.479 21.442500000000003 L 81.479 19.3 z M 86.065 25.969900000000003 C 86.065 23.1212 87.7427 21.331200000000003 90.359 21.331200000000003 C 92.984 21.331200000000003 94.6539 23.1212 94.6539 25.969900000000003 C 94.6539 28.826300000000003 92.9927 30.608500000000003 90.35889999999999 30.608500000000003 C 87.72609999999999 30.608500000000003 86.065 28.826300000000003 86.065 25.969900000000003 z M 92.7603 25.969900000000003 C 92.7603 24.015800000000002 91.8648 22.8624 90.3589 22.8624 C 88.85310000000001 22.8624 87.9585 24.0245 87.9585 25.969900000000003 C 87.9585 27.931800000000003 88.8531 29.076300000000003 90.3589 29.076300000000003 C 91.8648 29.076300000000003 92.7603 27.931800000000003 92.7603 25.969900000000003 z M 96.186 21.442500000000003 L 97.9585 21.442500000000003 L 97.9585 22.983500000000003 L 98.00150000000001 22.983500000000003 C 98.24869728719008 21.99147777315647 99.15768854480459 21.308753464184093 100.17930000000001 21.347800000000003 C 100.39345583546928 21.347040933271952 100.60702213278938 21.370286016363334 100.81600000000002 21.4171 L 100.81600000000002 23.1554 C 100.54563073503553 23.072784370939296 100.26358955772324 23.03485236589478 99.98100000000002 23.0431 C 99.43464755833752 23.02092764642321 98.90589729636599 23.238665353648734 98.53358925177577 23.639139227587 C 98.16128120718554 24.039613101525262 97.982613147465 24.58281129106429 98.04450000000003 25.1261 L 98.04450000000003 30.4962 L 96.186 30.4962 z M 109.38430000000001 27.837000000000003 C 109.13430000000001 29.480600000000003 107.53370000000001 30.608500000000003 105.48590000000002 30.608500000000003 C 102.85210000000002 30.608500000000003 101.21730000000001 28.8439 101.21730000000001 26.012800000000002 C 101.21730000000001 23.173000000000002 102.86090000000002 21.331200000000003 105.4077 21.331200000000003 C 107.9127 21.331200000000003 109.48780000000001 23.051900000000003 109.48780000000001 25.797000000000004 L 109.48780000000001 26.433700000000005 L 103.09330000000001 26.433700000000005 L 103.09330000000001 26.546000000000006 C 103.03358350722709 27.22003087390243 103.26631432332864 27.887233926025402 103.73229318398288 28.37789407307848 C 104.19827204463711 28.86855422013156 104.85258653171444 29.13538018874447 105.52880000000002 29.110500000000005 C 106.43068889173787 29.195041209976267 107.28100523622007 28.67714084903214 107.61970000000002 27.837000000000007 z M 103.10210000000001 25.134900000000002 L 107.62840000000001 25.134900000000002 C 107.66213991630315 24.529229077481297 107.44167741084681 23.93694125128201 107.02012929062491 23.500738510948825 C 106.59858117040301 23.064535770615638 106.01416999326851 22.823969435863198 105.40770000000002 22.837000000000003 C 104.79644692114833 22.83337090139944 104.20906782470041 23.074057056046563 103.77611665212557 23.505562303903847 C 103.3431654795507 23.937067551761128 103.10051572915205 24.523638201056052 103.10210000000002 25.134900000000002 z M 37.8262 8.7311 C 38.615159085955874 8.67447238498395 39.38793000086288 8.974641502616874 39.93180035420471 9.548983008039011 C 40.47567070754654 10.123324513461148 40.7333097735081 10.911295640976105 40.6338 11.696000000000002 C 40.6338 13.6022 39.603500000000004 14.698 37.8262 14.698 L 35.6709 14.698 L 35.6709 8.731 z M 36.5977 13.854099999999999 L 37.7227 13.854099999999999 C 38.2865079455084 13.887772406235559 38.835477749357736 13.665617534316576 39.21719172509406 13.249315154924313 C 39.598905700830386 12.83301277553205 39.772728713359044 12.2668801117763 39.690400000000004 11.708099999999998 C 39.766749355058266 11.151635717950231 39.59042724934732 10.59016732574171 39.20965750673782 10.17725556237323 C 38.82888776412832 9.76434379900475 38.28351579812714 9.543197559806393 37.7227 9.574299999999997 L 36.5977 9.574299999999997 z M 41.6807 12.4445 C 41.60346657444833 11.637385454417965 41.99047148857096 10.856262702846283 42.67940147142753 10.428741509881785 C 43.368331454284096 10.001220316917287 44.2400685457159 10.001220316917285 44.92899852857247 10.428741509881784 C 45.61792851142904 10.856262702846282 46.00493342555167 11.637385454417965 45.9277 12.4445 C 46.006610127001125 13.25260425742785 45.62000844848255 14.035456110956753 44.930381267583996 14.464027750688384 C 44.24075408668544 14.892599390420015 43.36764591331457 14.892599390420015 42.67801873241601 14.464027750688386 C 41.98839155151745 14.035456110956757 41.60178987299888 13.252604257427853 41.6807 12.444500000000003 z M 45.0137 12.4445 C 45.0137 11.468399999999999 44.5752 10.8976 43.8057 10.8976 C 43.0332 10.8976 42.5987 11.4684 42.5987 12.444500000000001 C 42.5987 13.428400000000002 43.033300000000004 13.994800000000001 43.8057 13.994800000000001 C 44.5752 13.994800000000001 45.0137 13.424500000000002 45.0137 12.444500000000001 z M 51.5733 14.6979 L 50.651300000000006 14.6979 L 49.72070000000001 11.3815 L 49.650400000000005 11.3815 L 48.72370000000001 14.6979 L 47.81060000000001 14.6979 L 46.56940000000001 10.1949 L 47.47070000000001 10.1949 L 48.27740000000001 13.6309 L 48.34380000000001 13.6309 L 49.26960000000001 10.1949 L 50.12210000000001 10.1949 L 51.04790000000001 13.6309 L 51.118200000000016 13.6309 L 51.92090000000002 10.1949 L 52.80960000000002 10.1949 z M 53.853500000000004 10.195 L 54.709 10.195 L 54.709 10.9103 L 54.775400000000005 10.9103 C 55.006325005864625 10.383589837690398 55.545982957202234 10.061393398965762 56.119200000000006 10.107999999999999 C 56.56301423948244 10.07464411845225 56.99791649924281 10.24490561281973 57.30112008629494 10.570714266480007 C 57.60432367334707 10.896522920140281 57.742927752909004 11.342525006612657 57.677800000000005 11.782799999999998 L 57.677800000000005 14.697799999999997 L 56.789100000000005 14.697799999999997 L 56.789100000000005 12.006 C 56.789100000000005 11.2824 56.4746 10.9225 55.817400000000006 10.9225 C 55.5163737330669 10.908500220150941 55.2242426081716 11.026648730915582 55.01758216470091 11.245975583635452 C 54.81092172123022 11.465302436355321 54.71033919105935 11.763937362900956 54.742200000000004 12.0636 L 54.742200000000004 14.697899999999999 L 53.853500000000004 14.697899999999999 z M 59.0938 8.437100000000001 L 59.9824 8.437100000000001 L 59.9824 14.6979 L 59.0938 14.6979 z M 61.217800000000004 12.444500000000001 C 61.140561459216414 11.637274853855386 61.52762244050255 10.856047725989923 62.21664734300508 10.428469765283406 C 62.90567224550762 10.00089180457689 63.77752775449239 10.00089180457689 64.46655265699492 10.428469765283406 C 65.15557755949746 10.856047725989924 65.54263854078359 11.637274853855386 65.4654 12.444500000000001 C 65.54389892327478 13.252469352567019 65.15714098257921 14.034996286011655 64.46759201094585 14.463363851733265 C 63.77804303931251 14.891731417454874 62.9051569606875 14.891731417454874 62.21560798905415 14.463363851733266 C 61.526059017420806 14.034996286011655 61.139301076725225 13.25246935256702 61.217800000000004 12.444500000000003 z M 64.55080000000001 12.444500000000001 C 64.55080000000001 11.4684 64.1123 10.8976 63.34280000000001 10.8976 C 62.57030000000001 10.8976 62.13580000000001 11.4684 62.13580000000001 12.444500000000001 C 62.13580000000001 13.428400000000002 62.570400000000014 13.994800000000001 63.34280000000001 13.994800000000001 C 64.1123 13.994800000000001 64.55080000000001 13.424500000000002 64.55080000000001 12.444500000000001 z M 66.40090000000001 13.424500000000002 C 66.40090000000001 12.613900000000001 67.0044 12.146600000000001 68.07570000000001 12.080200000000001 L 69.29540000000001 12.009900000000002 L 69.29540000000001 11.621200000000002 C 69.29540000000001 11.145600000000002 68.98100000000001 10.877100000000002 68.37360000000001 10.877100000000002 C 67.87750000000001 10.877100000000002 67.53370000000001 11.059200000000002 67.4351 11.377600000000003 L 66.5747 11.377600000000003 C 66.66550000000001 10.604100000000003 67.3931 10.108100000000002 68.41460000000001 10.108100000000002 C 69.54350000000001 10.108100000000002 70.18020000000001 10.670100000000001 70.18020000000001 11.621200000000002 L 70.18020000000001 14.697900000000002 L 69.3247 14.697900000000002 L 69.3247 14.065100000000003 L 69.2544 14.065100000000003 C 68.96385576434014 14.527213502108129 68.44717962990771 14.797298549829923 67.9019 14.772100000000004 C 67.51964082306218 14.811854513107217 67.13840254672922 14.688055545507975 66.85242670835788 14.431306018666389 C 66.56645086998654 14.174556491824802 66.40242643469738 13.808817797743858 66.4009 13.424500000000004 z M 69.2954 13.039700000000002 L 69.2954 12.663200000000002 L 68.1958 12.733500000000001 C 67.57570000000001 12.775 67.29440000000001 12.986 67.29440000000001 13.382900000000001 C 67.29440000000001 13.788200000000002 67.64600000000002 14.0241 68.1294 14.0241 C 68.41559417987168 14.053075569855514 68.70129416773906 13.964659382636276 68.9210935586368 13.779092898588484 C 69.14089294953453 13.593526414540692 69.27596963999073 13.326700267161517 69.2954 13.0397 z M 71.3482 12.444500000000001 C 71.3482 11.021600000000001 72.0796 10.120300000000002 73.21730000000001 10.120300000000002 C 73.79179092778647 10.093814315804284 74.3298612946468 10.401639350071553 74.5982 10.910300000000003 L 74.66460000000001 10.910300000000003 L 74.66460000000001 8.437 L 75.5532 8.437 L 75.5532 14.697799999999999 L 74.7017 14.697799999999999 L 74.7017 13.9863 L 74.6314 13.9863 C 74.34281664618034 14.490737176472233 73.79815819111799 14.793380845597044 73.2174 14.772 C 72.0718 14.772 71.34819999999999 13.8706 71.34819999999999 12.4444 z M 72.26620000000001 12.444500000000001 C 72.26620000000001 13.399500000000002 72.71640000000001 13.974300000000001 73.46920000000001 13.974300000000001 C 74.21820000000001 13.974300000000001 74.68120000000002 13.391300000000001 74.68120000000002 12.448300000000001 C 74.68120000000002 11.509900000000002 74.21340000000002 10.918600000000001 73.46920000000001 10.918600000000001 C 72.72120000000001 10.918600000000001 72.26620000000001 11.497200000000001 72.26620000000001 12.444500000000001 z M 79.23000000000002 12.444500000000001 C 79.15276657444835 11.637385454417966 79.53977148857098 10.856262702846283 80.22870147142754 10.428741509881785 C 80.91763145428412 10.001220316917287 81.78936854571592 10.001220316917287 82.4782985285725 10.428741509881785 C 83.16722851142906 10.856262702846283 83.55423342555169 11.637385454417966 83.47700000000002 12.444500000000001 C 83.55591012700114 13.252604257427851 83.16930844848257 14.035456110956755 82.47968126758401 14.464027750688386 C 81.79005408668546 14.892599390420017 80.91694591331458 14.892599390420017 80.22731873241602 14.464027750688388 C 79.53769155151747 14.035456110956758 79.1510898729989 13.252604257427855 79.23000000000002 12.444500000000005 z M 82.56300000000002 12.444500000000001 C 82.56300000000002 11.4684 82.12450000000001 10.8976 81.35500000000002 10.8976 C 80.58250000000002 10.8976 80.14800000000002 11.4684 80.14800000000002 12.444500000000001 C 80.14800000000002 13.428400000000002 80.58260000000003 13.994800000000001 81.35500000000002 13.994800000000001 C 82.12450000000001 13.994800000000001 82.56300000000002 13.424500000000002 82.56300000000002 12.444500000000001 z M 84.66940000000001 10.195000000000002 L 85.52490000000002 10.195000000000002 L 85.52490000000002 10.910300000000003 L 85.59130000000002 10.910300000000003 C 85.82222500586464 10.383589837690401 86.36188295720225 10.061393398965766 86.93510000000002 10.108000000000002 C 87.37891423948246 10.074644118452253 87.81381649924282 10.244905612819734 88.11702008629496 10.57071426648001 C 88.42022367334708 10.896522920140285 88.55882775290902 11.34252500661266 88.49370000000002 11.782800000000002 L 88.49370000000002 14.6978 L 87.60500000000002 14.6978 L 87.60500000000002 12.006 C 87.60500000000002 11.2824 87.29050000000002 10.9225 86.63330000000002 10.9225 C 86.33227373306691 10.908500220150943 86.04014260817162 11.026648730915586 85.83348216470092 11.245975583635454 C 85.62682172123024 11.465302436355325 85.52623919105936 11.763937362900958 85.55810000000002 12.0636 L 85.55810000000002 14.697899999999999 L 84.66950000000003 14.697899999999999 z M 93.51520000000001 9.073900000000002 L 93.51520000000001 10.215500000000002 L 94.49080000000001 10.215500000000002 L 94.49080000000001 10.964000000000002 L 93.51520000000001 10.964000000000002 L 93.51520000000001 13.279400000000003 C 93.51520000000001 13.751100000000003 93.7095 13.957700000000003 94.15190000000001 13.957700000000003 C 94.26513393073202 13.957304930078793 94.37825236778161 13.95042700858168 94.49070000000002 13.937100000000003 L 94.49070000000002 14.677400000000002 C 94.33110922854128 14.705947364976197 94.16941535595556 14.721133343080027 94.00730000000001 14.722800000000003 C 93.01910000000001 14.722800000000003 92.62550000000002 14.375100000000003 92.62550000000002 13.507000000000003 L 92.62550000000002 10.964000000000002 L 91.91070000000002 10.964000000000002 L 91.91070000000002 10.215400000000002 L 92.62550000000002 10.215400000000002 L 92.62550000000002 9.074 z M 95.70460000000001 8.437100000000001 L 96.58550000000001 8.437100000000001 L 96.58550000000001 10.918600000000001 L 96.65580000000001 10.918600000000001 C 96.89780903132143 10.387295064506986 97.44688566788486 10.06468754614157 98.02880000000002 10.111900000000002 C 98.47011686758607 10.087880123425215 98.89915950071463 10.261896691626704 99.19905784876238 10.586548062985074 C 99.49895619681013 10.911199434343443 99.63847143847765 11.352668396324868 99.57960000000001 11.790700000000003 L 99.57960000000001 14.697900000000002 L 98.69 14.697900000000002 L 98.69 12.009900000000002 C 98.69 11.290600000000001 98.355 10.926400000000001 97.7271 10.926400000000001 C 97.4179327661623 10.90106205856462 97.11334302660116 11.013464898768847 96.89474902462348 11.233562722598197 C 96.6761550226458 11.453660546427546 96.56584304774904 11.75901374540585 96.5933 12.068 L 96.5933 14.6979 L 95.7046 14.6979 z M 104.7613 13.482000000000001 C 104.51213257573171 14.33141969429057 103.69014963204256 14.880250864359367 102.8101 14.7848 C 102.20966138763522 14.800659217818131 101.63260303682745 14.551784666073422 101.23203492464141 14.104209834890893 C 100.83146681245537 13.656635003708363 100.64788538087491 13.055608597697796 100.73 12.460600000000003 C 100.6500303007164 11.863922340864683 100.83291020517882 11.261903895653637 101.23125549373508 10.81052776336511 C 101.62960078229133 10.359151631076584 102.20420934905863 10.102838808868764 102.8062 10.108 C 104.0591 10.108 104.815 10.964 104.815 12.378 L 104.815 12.6881 L 101.6353 12.6881 L 101.6353 12.7379 C 101.60716237551482 13.072036634984972 101.7212784517799 13.40254096067698 101.94958406944555 13.648133227845666 C 102.17788968711119 13.893725495014351 102.49920133996552 14.031618242841372 102.8345 14.027899999999999 C 103.26927726760853 14.080110152611669 103.6925089598129 13.864444904059097 103.9058 13.482 z M 101.6353 12.0309 L 103.9097 12.0309 C 103.93234337985012 11.725302789579024 103.82488574150781 11.424352944766296 103.61380631467951 11.202209177719013 C 103.40272688785122 10.980065410671731 103.1076546573671 10.857385616377616 102.8013 10.8644 C 102.49078861995062 10.860490638686123 102.19185874113467 10.982149977943417 101.97232371292125 11.201779146391923 C 101.75278868470782 11.421408314840429 101.63125751520155 11.720390324526424 101.6353 12.030899999999999 z" stroke-linecap="round" />
</g>
</g>
</g>
</svg>