<svg width="23" height="19" viewBox="0 0 23 19" fill="none" xmlns="http://www.w3.org/2000/svg">
<path d="M22.8538 9.85403L13.8538 18.854C13.7599 18.9478 13.6327 19.0006 13.5 19.0006C13.3673 19.0006 13.2401 18.9478 13.1462 18.854C13.0524 18.7602 12.9997 18.633 12.9997 18.5003C12.9997 18.3676 13.0524 18.2403 13.1462 18.1465L21.2925 10.0003H0.5C0.367392 10.0003 0.240215 9.9476 0.146447 9.85383C0.0526785 9.76006 0 9.63289 0 9.50028C0 9.36767 0.0526785 9.24049 0.146447 9.14672C0.240215 9.05296 0.367392 9.00028 0.5 9.00028H21.2925L13.1462 0.854028C13.0524 0.760208 12.9997 0.63296 12.9997 0.500278C12.9997 0.367596 13.0524 0.240349 13.1462 0.146528C13.2401 0.0527079 13.3673 2.61548e-09 13.5 0C13.6327 -2.61548e-09 13.7599 0.0527074 13.8538 0.146528L22.8538 9.14653C22.9002 9.19296 22.9371 9.24811 22.9623 9.30881C22.9874 9.36951 23.0004 9.43457 23.0004 9.50028C23.0004 9.56599 22.9874 9.63105 22.9623 9.69175C22.9371 9.75245 22.9002 9.80759 22.8538 9.85403Z" fill="white"/>
</svg>
