<svg width="25" height="25" viewBox="0 0 25 25" fill="none" xmlns="http://www.w3.org/2000/svg">
<path d="M12.5 7C11.4122 7 10.3488 7.32257 9.44436 7.92692C8.53989 8.53127 7.83495 9.39025 7.41866 10.3952C7.00238 11.4002 6.89346 12.5061 7.10568 13.573C7.3179 14.6399 7.84172 15.6199 8.61091 16.3891C9.3801 17.1583 10.3601 17.6821 11.427 17.8943C12.4939 18.1065 13.5998 17.9976 14.6048 17.5813C15.6098 17.1651 16.4687 16.4601 17.0731 15.5556C17.6774 14.6512 18 13.5878 18 12.5C17.9983 11.0418 17.4184 9.64383 16.3873 8.61274C15.3562 7.58165 13.9582 7.00165 12.5 7ZM12.5 17C11.61 17 10.74 16.7361 9.99993 16.2416C9.25991 15.7471 8.68314 15.0443 8.34254 14.2221C8.00195 13.3998 7.91283 12.495 8.08647 11.6221C8.2601 10.7492 8.68868 9.94736 9.31802 9.31802C9.94736 8.68868 10.7492 8.2601 11.6221 8.08647C12.495 7.91283 13.3998 8.00195 14.2221 8.34254C15.0443 8.68314 15.7471 9.25991 16.2416 9.99993C16.7361 10.74 17 11.61 17 12.5C17 13.6935 16.5259 14.8381 15.682 15.682C14.8381 16.5259 13.6935 17 12.5 17ZM18.5 0H6.5C4.7767 0.00198499 3.12455 0.687442 1.906 1.906C0.687442 3.12455 0.00198499 4.7767 0 6.5V18.5C0.00198499 20.2233 0.687442 21.8754 1.906 23.094C3.12455 24.3126 4.7767 24.998 6.5 25H18.5C20.2233 24.998 21.8754 24.3126 23.094 23.094C24.3126 21.8754 24.998 20.2233 25 18.5V6.5C24.998 4.7767 24.3126 3.12455 23.094 1.906C21.8754 0.687442 20.2233 0.00198499 18.5 0ZM24 18.5C23.9983 19.9582 23.4184 21.3562 22.3873 22.3873C21.3562 23.4184 19.9582 23.9983 18.5 24H6.5C5.04182 23.9983 3.64383 23.4184 2.61274 22.3873C1.58165 21.3562 1.00165 19.9582 1 18.5V6.5C1.00165 5.04182 1.58165 3.64383 2.61274 2.61274C3.64383 1.58165 5.04182 1.00165 6.5 1H18.5C19.9582 1.00165 21.3562 1.58165 22.3873 2.61274C23.4184 3.64383 23.9983 5.04182 24 6.5V18.5ZM20 6C20 6.19778 19.9414 6.39112 19.8315 6.55557C19.7216 6.72002 19.5654 6.84819 19.3827 6.92388C19.2 6.99957 18.9989 7.01937 18.8049 6.98079C18.6109 6.9422 18.4327 6.84696 18.2929 6.70711C18.153 6.56725 18.0578 6.38907 18.0192 6.19509C17.9806 6.00111 18.0004 5.80004 18.0761 5.61732C18.1518 5.43459 18.28 5.27841 18.4444 5.16853C18.6089 5.05865 18.8022 5 19 5C19.2652 5 19.5196 5.10536 19.7071 5.29289C19.8946 5.48043 20 5.73478 20 6Z" fill="white"/>
</svg>
